<svg version="1.0" xmlns="http://www.w3.org/2000/svg" width="933.333" height="933.333" viewBox="0 0 700 700"><path d="M327.8.5c-.2.1-4.1.6-8.8.9-4.7.4-9.6.8-11 1-1.4.2-4.6.7-7.1 1-2.5.4-5.7.9-7 1.1-1.3.2-4.1.6-6.2.9-22.5 3.4-59.6 15-83.6 26.2-5.1 2.4-9.5 4.4-9.7 4.4-1.4 0-29.8 16.6-39.7 23.2-27.7 18.5-57.9 46.3-77.8 71.4-2.9 3.8-5.7 7.3-6.2 7.9-16.1 20-37.7 59.3-48.6 88.6-9.4 25.4-17.6 59-19.7 81.4-.2 2.2-.7 7.6-1.1 12-1 10-1 49.6 0 59 .4 3.8 1 9.9 1.3 13.5.5 5.4 4.1 26.3 5.7 33.5 13.6 59.1 40.4 111.4 80.1 156.2 11 12.4 20.8 22.1 31.6 31.3 3.5 3 7.1 6.1 8 6.9 7.7 7.3 37.8 27.6 54 36.4 10.5 5.8 31.4 15.7 32.9 15.7.4 0 2.5.9 4.7 1.9 8 3.9 40.5 14 52.8 16.5 1.1.3 4.6 1 7.6 1.6 8.8 1.8 9.3 1.9 13 2.4 3.2.4 8.2 1.1 15 2.2 16.7 2.5 63.2 2.5 84-.1 62.3-7.7 119.8-30.9 169.5-68.3 40-30 77.9-75.1 99.4-118.1 2.3-4.7 4.5-9 5-9.5 1.6-2.1 12.1-28.3 16-40.1 4.1-12.3 8.5-28.4 10.6-39 .4-2.2 1-4.9 1.2-6 .2-1.1.6-3.1.8-4.5.4-2.6 1.2-7.6 2-12 .2-1.4.7-5.2 1-8.5.4-3.3.9-7.1 1.1-8.5.9-4.8 1.1-52.6.3-61.2-1.5-16.2-2.6-24.6-5.4-39.3-6.4-34.4-22.8-78.3-40.5-108-1.6-2.8-3.2-5.7-3.6-6.5-3.2-6.7-21.3-31.7-32.3-44.5-24.4-28.6-53.1-53.2-85.6-73.2-19.5-12-58.3-29.6-74.5-33.9-.8-.2-6.2-1.7-11.9-3.3-11.8-3.4-31.7-7.7-45.1-9.7-.8-.1-4.6-.5-8.5-.9-3.8-.4-8.1-.9-9.5-1.2-2.7-.5-53.6-1.3-54.2-.8z"/></svg>